<?xml version="1.0" encoding="utf-8"?>
<!-- Generator: Adobe Illustrator 25.4.1, SVG Export Plug-In . SVG Version: 6.00 Build 0)  -->
<svg version="1.1" id="Capa_1" xmlns="http://www.w3.org/2000/svg" xmlns:xlink="http://www.w3.org/1999/xlink" x="0px" y="0px"
	 viewBox="0 0 128 159.9" style="enable-background:new 0 0 128 159.9;" xml:space="preserve">
<style type="text/css">
	.st0{fill:#0A3871;}
	.st1{fill-rule:evenodd;clip-rule:evenodd;fill:#FFFFFF;}
</style>
<g>
	<path class="st0" d="M114.5,65.5c-1.3-1.5-2.4-2.8-1.9-5.3c1.2-6.4,0.3-12.7-0.8-19.1c-4.7-29-31.7-46.8-60.1-39.6
		C28.3,7.4,13,30.4,15.1,57.3c0.4,4.5-0.9,7.3-3.5,10.6C1.8,80.6-2.1,95.1,1.1,110.8c5.9,29.4,31.3,48.9,63.9,48.8
		c4.3,0.9,9.5-0.3,14.6-1.6C126.9,146.4,141.6,96.9,114.5,65.5z M30.4,51.2c-2-10.1,4.5-24.4,14.9-31.2c11.5-7.5,23.7-7.9,35.6-1.2
		c12.4,7,16.9,18.7,17.8,32.7C70.8,38.9,52.5,41.1,30.4,51.2z"/>
	<path class="st1" d="M78,100.5c-0.1,0.5-0.3,1-0.6,1.4c-0.3,0.4-0.7,0.7-1.1,1c-0.9,0.6-1.7,0.9-2.4,1.1c-1.7,0.6-3.4,1.1-5.2,1.8
		c-1.9,0.7-3.7,1.3-5.2,1.8c-1.9,0.7-3.8,1.2-5.5,1.9c-1.3,0.6-2.6,1.3-3.7,2.2c-1,0.9-2,2-2.7,3.2c-0.8,1.3-1.3,3-1.3,5
		c0,4,1,7,2.9,8.9c1.9,2,5.5,3,10.9,3c5.4,0,9.1-1,11.1-3.1c1.9-2.1,2.9-5,2.9-8.8L78,100.5L78,100.5z M64,58.5
		c9.5,0,16.5,1.8,21,5.5c4.5,3.6,6.7,8.3,6.7,13.8v46.9c0,1.9-0.4,4-1.1,6.3c-0.7,2.3-2,4.4-4.2,6.3c-2,1.9-4.9,3.5-8.4,4.7
		c-3.6,1.2-8.3,1.9-14,1.9s-10.4-0.7-14-1.9c-3.6-1.2-6.4-2.8-8.4-4.7c-1.9-1.7-3.3-3.9-4.2-6.3c-0.7-2.3-1.1-4.4-1.1-6.3v-7.5
		c0-4,1.1-7.7,3.2-10.9c2.1-3.3,5.1-5.6,9-7c1.9-0.7,4.2-1.3,6.7-2.2s4.9-1.7,7.2-2.5c2.3-0.8,4.4-1.5,6.1-2.2
		c1-0.4,2.1-0.8,3.2-1.1l1.7-0.9c0.7-0.4,1.4-0.9,2-1.7c0.7-0.7,1.3-1.6,1.7-2.6c0.5-1,0.8-2.2,0.8-3.3v-3c0-1.1-0.2-2.2-0.7-3.2
		c-0.4-1.1-1.2-2.2-2.2-3.1c-1.1-0.9-2.5-1.7-4.3-2.3c-1.7-0.6-4.1-0.9-6.7-0.9c-5.4,0-9,1-11,3.2c-1.7,1.9-2.6,4.3-2.8,6.9
		c0,0.6-0.5,0.9-1.1,0.9l-11.8,0.2c-0.3,0-0.6-0.1-0.7-0.3c-0.2-0.2-0.3-0.5-0.3-0.7v-2.7c0-2.7,0.5-5.1,1.5-7.5
		c1.1-2.4,2.7-4.4,4.9-6.1c2.2-1.7,5.1-3.1,8.6-4.1C55,58.9,59.2,58.5,64,58.5L64,58.5z"/>
</g>
</svg>
