<?xml version="1.0" encoding="utf-8"?>
<!-- Generator: Adobe Illustrator 25.4.1, SVG Export Plug-In . SVG Version: 6.00 Build 0)  -->
<svg version="1.1" id="Capa_1" xmlns="http://www.w3.org/2000/svg" xmlns:xlink="http://www.w3.org/1999/xlink" x="0px" y="0px"
	 viewBox="0 0 129.1 129" style="enable-background:new 0 0 129.1 129;" xml:space="preserve">
<style type="text/css">
	.st0{fill:#999999;}
</style>
<g>
	<path class="st0" d="M9.9,0.1c36.4,0,72.7,0,109.1,0c0.4,0,0.9,0.1,1.3-0.1C83,0,45.8,0,8.6,0C9,0.2,9.5,0.1,9.9,0.1z"/>
	<path class="st0" d="M0.1,9c0-0.2,0-0.4,0-0.5c0,0-0.1,0-0.1,0.1c0,37,0,74.1,0,111.1h0.1l0,0v-0.1C0.1,82.8,0.1,45.9,0.1,9z"/>
	<path class="st0" d="M129,54.1c0-15,0-30,0-45c0-4.9-3.2-8.5-8-9c-0.2,0-0.3,0-0.5-0.1c-0.1,0-0.2,0-0.2,0c-0.5,0.4-1,0.2-1.5,0.2
		c-36.2,0-72.3,0-108.5,0C9.7,0.2,9.1,0.4,8.6,0C8.5,0,8.3,0,8.1,0c-1.3,0.4-2.7,0.2-4,1c-2.7,1.8-4,4.3-4,7.5c0,0,0.1,0,0.1,0.1
		c0,0.4,0,0.9,0,1.3c0,36.2,0,72.3,0,108.5c0,0.4,0,0.9,0,1.3H0.1c0.1,1.7,0.1,3.3,1.2,4.8c2.2,3.1,5.2,4.4,8.8,4.4
		c36.1,0,72.2,0,108.4,0c5.8,0,10.6-4.4,10.5-10.5C128.9,97,129,75.6,129,54.1z M38.2,108c0,1-0.2,1.3-1.2,1.3c-5.5,0-11.1,0-16.6,0
		c-1,0-1.2-0.3-1.2-1.2c0-9.8,0-19.6,0-29.3s0-19.5,0-29.2c0-1.1,0.3-1.4,1.4-1.4c5.4,0,10.9,0,16.3,0c1,0,1.4,0.2,1.4,1.3
		C38.2,68.9,38.2,88.5,38.2,108z M28.8,39.7c-6,0-11-4.9-11-10.9s4.9-11,10.9-11.1c6.1,0,11.1,4.9,11.1,10.9
		C39.7,34.8,34.8,39.7,28.8,39.7z M109.5,107.9c0,1.1-0.3,1.3-1.3,1.3c-5.5,0-11,0-16.5,0c-0.9,0-1.1-0.2-1.1-1.1
		c0-10.2,0-20.3,0-30.5c0-2.3-0.2-4.5-0.7-6.8c-1.1-4.9-3.8-7.2-8.8-7.5c-5.8-0.4-9.7,2.5-11.1,8c-0.5,2.1-0.7,4.2-0.7,6.4
		c0,10.1,0,20.1,0,30.2c0,1.1-0.3,1.4-1.4,1.4c-5.5,0-11,0-16.5,0c-0.9,0-1.1-0.3-1.1-1.1c0-19.6,0-39.2,0-58.8c0-1,0.3-1.2,1.2-1.2
		c5.3,0,10.5,0,15.8,0c1,0,1.2,0.3,1.2,1.2c-0.1,2.3,0,4.7,0,7c0.1,0,0.2,0.1,0.3,0.1c1-1.6,2-3,3.4-4.3c4-3.8,8.8-5.7,14.3-5.6
		c3.5,0,6.9,0.3,10.2,1.5c6.8,2.5,10.1,7.8,11.6,14.5c1,4.4,1.2,8.9,1.2,13.4C109.5,86.7,109.4,97.3,109.5,107.9z"/>
</g>
</svg>
